<?xml version="1.0" encoding="utf-8"?>
<!-- Generator: Adobe Illustrator 16.0.3, SVG Export Plug-In . SVG Version: 6.00 Build 0)  -->
<!DOCTYPE svg PUBLIC "-//W3C//DTD SVG 1.1//EN" "http://www.w3.org/Graphics/SVG/1.1/DTD/svg11.dtd">
<svg version="1.1" id="Layer_1" xmlns="http://www.w3.org/2000/svg" xmlns:xlink="http://www.w3.org/1999/xlink" x="0px" y="0px"
	 width="31.181px" height="31.181px" viewBox="0 0 31.181 31.181" style="enable-background:new 0 0 31.181 31.181;"
	 xml:space="preserve">
<g>
	<g>
		<g>
			
				<rect x="3.312" y="13.532" transform="matrix(0.7071 0.7071 -0.7071 0.7071 15.6524 -6.4844)" style="fill:#1E1E1E;" width="24.683" height="4.239"/>
		</g>
		
			<ellipse transform="matrix(0.7071 0.7071 -0.7071 0.7071 6.9261 -2.868)" style="fill:#1E1E1E;" cx="6.925" cy="6.927" rx="1.834" ry="2.117"/>
		
			<ellipse transform="matrix(0.7071 0.7071 -0.7071 0.7071 24.3788 -10.0989)" style="fill:#1E1E1E;" cx="24.38" cy="24.378" rx="1.833" ry="2.118"/>
	</g>
	<g>
		<g>
			
				<rect x="3.311" y="13.532" transform="matrix(0.7071 -0.7071 0.7071 0.7071 -6.4829 15.6521)" style="fill:#1E1E1E;" width="24.683" height="4.239"/>
		</g>
		
			<ellipse transform="matrix(0.7071 -0.7071 0.7071 0.7071 -15.2105 12.0389)" style="fill:#1E1E1E;" cx="6.927" cy="24.38" rx="1.834" ry="2.117"/>
		
			<ellipse transform="matrix(0.7071 -0.7071 0.7071 0.7071 2.2435 19.2669)" style="fill:#1E1E1E;" cx="24.379" cy="6.925" rx="1.833" ry="2.118"/>
	</g>
</g>
<g>
	<g>
		<g>
			<rect x="58.813" y="4.667" style="fill:#1E1E1E;" width="24.68" height="4.252"/>
		</g>
		<ellipse style="fill:#1E1E1E;" cx="58.813" cy="6.795" rx="1.833" ry="2.123"/>
		<ellipse style="fill:#1E1E1E;" cx="83.493" cy="6.793" rx="1.833" ry="2.123"/>
	</g>
	<g>
		<g>
			<rect x="58.813" y="13.536" style="fill:#1E1E1E;" width="24.68" height="4.252"/>
		</g>
		<ellipse style="fill:#1E1E1E;" cx="58.813" cy="15.665" rx="1.833" ry="2.123"/>
		<ellipse style="fill:#1E1E1E;" cx="83.493" cy="15.663" rx="1.833" ry="2.123"/>
	</g>
	<g>
		<g>
			<rect x="58.813" y="22.386" style="fill:#1E1E1E;" width="24.681" height="4.252"/>
		</g>
		<ellipse style="fill:#1E1E1E;" cx="58.813" cy="24.514" rx="1.833" ry="2.124"/>
		<ellipse style="fill:#1E1E1E;" cx="83.493" cy="24.512" rx="1.833" ry="2.125"/>
	</g>
</g>
</svg>
