<?xml version="1.0" encoding="utf-8"?>
<!-- Generator: Adobe Illustrator 16.0.3, SVG Export Plug-In . SVG Version: 6.00 Build 0)  -->
<!DOCTYPE svg PUBLIC "-//W3C//DTD SVG 1.1//EN" "http://www.w3.org/Graphics/SVG/1.1/DTD/svg11.dtd">
<svg version="1.1" id="Layer_1" xmlns="http://www.w3.org/2000/svg" xmlns:xlink="http://www.w3.org/1999/xlink" x="0px" y="0px"
	 width="31.181px" height="31.181px" viewBox="0 0 31.181 31.181" style="enable-background:new 0 0 31.181 31.181;"
	 xml:space="preserve">
<g>
	<g>
		<g>
			
				<rect x="-52.251" y="13.47" transform="matrix(0.7071 0.7071 -0.7071 0.7071 -0.6654 32.786)" style="fill:#1E1E1E;" width="24.683" height="4.239"/>
		</g>
		
			<ellipse transform="matrix(0.7071 0.7071 -0.7071 0.7071 -9.3916 36.4024)" style="fill:#1E1E1E;" cx="-48.637" cy="6.865" rx="1.834" ry="2.117"/>
		
			<ellipse transform="matrix(0.7071 0.7071 -0.7071 0.7071 8.0611 29.1716)" style="fill:#1E1E1E;" cx="-31.183" cy="24.316" rx="1.833" ry="2.118"/>
	</g>
	<g>
		<g>
			
				<rect x="-52.252" y="13.47" transform="matrix(0.7071 -0.7071 0.7071 0.7071 -22.7129 -23.6547)" style="fill:#1E1E1E;" width="24.683" height="4.239"/>
		</g>
		
			<ellipse transform="matrix(0.7071 -0.7071 0.7071 0.7071 -31.4405 -27.2679)" style="fill:#1E1E1E;" cx="-48.635" cy="24.318" rx="1.834" ry="2.117"/>
		
			<ellipse transform="matrix(0.7071 -0.7071 0.7071 0.7071 -13.9865 -20.0399)" style="fill:#1E1E1E;" cx="-31.184" cy="6.863" rx="1.833" ry="2.118"/>
	</g>
</g>
<g>
	<g>
		<g>
			<rect x="3.251" y="4.604" style="fill:#1E1E1E;" width="24.68" height="4.252"/>
		</g>
		<ellipse style="fill:#1E1E1E;" cx="3.25" cy="6.733" rx="1.833" ry="2.123"/>
		<ellipse style="fill:#1E1E1E;" cx="27.931" cy="6.731" rx="1.833" ry="2.123"/>
	</g>
	<g>
		<g>
			<rect x="3.251" y="13.474" style="fill:#1E1E1E;" width="24.68" height="4.252"/>
		</g>
		<ellipse style="fill:#1E1E1E;" cx="3.25" cy="15.603" rx="1.833" ry="2.123"/>
		<ellipse style="fill:#1E1E1E;" cx="27.93" cy="15.601" rx="1.833" ry="2.123"/>
	</g>
	<g>
		<g>
			<rect x="3.25" y="22.324" style="fill:#1E1E1E;" width="24.681" height="4.252"/>
		</g>
		<ellipse style="fill:#1E1E1E;" cx="3.25" cy="24.452" rx="1.833" ry="2.124"/>
		<ellipse style="fill:#1E1E1E;" cx="27.93" cy="24.45" rx="1.833" ry="2.125"/>
	</g>
</g>
</svg>
